<?xml version='1.0' encoding='iso-8859-1'?>
<!-- Uploaded to: SVG Repo, www.svgrepo.com, Generator: SVG Repo Mixer Tools -->
<svg fill="#000000" height="800px" width="800px" version="1.1" xmlns="http://www.w3.org/2000/svg" viewBox="0 0 463 463" xmlns:xlink="http://www.w3.org/1999/xlink" enable-background="new 0 0 463 463">
  <g>
    <path d="m381.454,348.116l-55.657-23.971c-0.792-5.719-3.676-10.967-8.181-14.731 5.984-0.687 12.677-1.668 19.414-3.071 30.503-6.356 45.97-18.078 45.97-34.843 0-45.52-6.143-123.512-14.957-162.648-6.938-30.808-24.398-58.631-49.165-78.342-24.72-19.675-55.751-30.51-87.378-30.51s-62.658,10.835-87.378,30.509c-24.767,19.711-42.228,47.534-49.165,78.342-8.815,39.137-14.957,117.129-14.957,162.649 0,16.765 15.467,28.487 45.971,34.842 6.736,1.403 13.429,2.384 19.413,3.071-4.504,3.765-7.389,9.012-8.18,14.731l-55.657,23.971c-20.379,8.778-33.547,28.786-33.547,50.974v40.411c0,12.958 10.542,23.5 23.5,23.5h320c12.958,0 23.5-10.542 23.5-23.5v-40.411c0-22.188-13.168-42.196-33.546-50.973zm-229.423-19.72c-0.003-0.029-0.006-0.058-0.01-0.087-0.347-3.146 1.085-6.199 3.738-7.968l8.832-5.888 24.481,48.961c-7.015,2.862-18.096,7.869-31.427,15.589-1.175-10.563-3.106-27.972-5.614-50.607zm-17.031-144.896c0-26.049 6.522-50.643 18.912-71.481 35.424,16.437 122.863,33.462 170.074,37.873 2.665,11.17 4.014,22.452 4.014,33.609 0,0.176-0.005,0.35-0.005,0.525-0.164-0.011-0.328-0.025-0.495-0.025h-25.734c-3.138-9.29-11.93-16-22.266-16h-16c-8.481,0-15.927,4.517-20.059,11.271-3.502-2.075-7.583-3.271-11.941-3.271s-8.439,1.196-11.941,3.271c-4.132-6.755-11.578-11.272-20.059-11.272h-16c-10.336,0-19.128,6.71-22.266,16h-25.734c-0.167,0-0.33,0.014-0.495,0.025-0.001-0.175-0.005-0.349-0.005-0.525zm25,15.5v0.5c0,4.142 3.357,7.5 7.5,7.5s7.5-3.358 7.5-7.5v-8c0-4.687 3.813-8.5 8.5-8.5h0.5v8.5c0,4.142 3.357,7.5 7.5,7.5s7.5-3.358 7.5-7.5v-8.5h0.5c4.687,0 8.5,3.813 8.5,8.5v8c0,4.142 3.357,7.5 7.5,7.5s7.5-3.358 7.5-7.5c0-4.687 3.813-8.5 8.5-8.5s8.5,3.813 8.5,8.5c0,4.142 3.357,7.5 7.5,7.5s7.5-3.358 7.5-7.5v-8c0-4.687 3.813-8.5 8.5-8.5h0.5v8.5c0,4.142 3.357,7.5 7.5,7.5s7.5-3.358 7.5-7.5v-8.5h0.5c4.687,0 8.5,3.813 8.5,8.5v8c0,4.142 3.357,7.5 7.5,7.5s7.5-3.358 7.5-7.5v-0.5h24.204c-6.11,59.15-46.699,105-95.704,105s-89.594-45.85-95.704-105h24.204zm102.355,154.018c-7.146,4.373-18.654,6.982-30.855,6.982-12.202,0-23.71-2.609-30.856-6.981l-25.644-51.289v-1.459c16.579,11.893 35.893,18.729 56.5,18.729s39.921-6.836 56.5-18.729v1.459l-25.645,51.288zm-30.855,21.982c6.565,0 12.939-0.638 18.835-1.838l-18.351,22.938-18.176-22.72c5.575,1.054 11.547,1.62 17.692,1.62zm66.908-60.547l8.832,5.888c2.653,1.769 4.085,4.822 3.739,7.968-0.003,0.029-0.007,0.058-0.01,0.087-2.508,22.635-4.439,40.044-5.615,50.607-13.329-7.719-24.412-12.727-31.427-15.589l24.481-48.961zm-203.408-42.953c0-50.379 6.817-124.843 14.59-159.353 6.19-27.486 21.771-52.311 43.873-69.902 22.075-17.569 49.79-27.245 78.037-27.245s55.962,9.676 78.037,27.246c22.102,17.591 37.683,42.416 43.873,69.902 7.772,34.509 14.59,108.973 14.59,159.352 0,14.53-36.377,22.576-65,24.212v-8.326c24.433-24.876 40-62.211 40-103.886 0-14.177-1.966-28.515-5.842-42.615-0.838-3.049-3.499-5.245-6.652-5.489-64.763-5.015-151.347-26.94-173.551-38.593-1.085-0.569-2.28-0.83-3.521-0.859l-3.071,.013c-2.516,0.017-4.856,1.294-6.231,3.401-15.788,24.194-24.132,53.29-24.132,84.142 0,41.675 15.567,79.01 40,103.886v8.326c-28.623-1.636-65-9.682-65-24.212zm305,168c0,4.687-3.813,8.5-8.5,8.5h-40.5v-16.5c0-4.142-3.357-7.5-7.5-7.5s-7.5,3.358-7.5,7.5v16.5h-209v-16.5c0-4.142-3.357-7.5-7.5-7.5s-7.5,3.358-7.5,7.5v16.5h-40.5c-4.687,0-8.5-3.813-8.5-8.5v-40.411c0-16.191 9.608-30.792 24.479-37.197l50.752-21.859 5.6,50.427c0.317,2.82 0.677,6.016 4.442,7.81 1.023,0.488 2.126,0.729 3.226,0.729 1.4,0 2.796-0.392 4.017-1.166 18.565-11.773 34.047-18.503 41.503-21.429l28.624,35.78c1.423,1.779 3.578,2.815 5.856,2.815h0.97c2.278,0 4.434-1.036 5.856-2.815l28.396-35.495c7.688,3.055 22.719,9.703 40.761,21.144 1.221,0.774 2.616,1.166 4.017,1.166 1.1,0 2.202-0.241 3.226-0.729 3.766-1.794 4.125-4.99 4.442-7.81l5.6-50.427 50.752,21.859c14.872,6.405 24.481,21.005 24.481,37.197v40.411z"/>
    <path d="m195.28,261.48c8.89,6.05 22.091,9.52 36.22,9.52 14.128,0 27.329-3.47 36.22-9.519 3.424-2.33 4.312-6.996 1.98-10.42-2.329-3.424-6.993-4.313-10.42-1.981-6.368,4.333-16.753,6.92-27.78,6.92-11.028,0-21.413-2.587-27.78-6.92-3.423-2.33-8.089-1.444-10.42,1.98s-1.444,8.09 1.98,10.42z"/>
  </g>
</svg>